<?xml version="1.0" standalone="no"?><!DOCTYPE svg PUBLIC "-//W3C//DTD SVG 1.1//EN" "http://www.w3.org/Graphics/SVG/1.1/DTD/svg11.dtd"><svg t="1767864230130" class="icon" viewBox="0 0 1024 1024" version="1.1" xmlns="http://www.w3.org/2000/svg" p-id="18979" xmlns:xlink="http://www.w3.org/1999/xlink" width="200" height="200"><path d="M950.9 658.3c-40.4 0-73.1 32.7-73.1 73.1v73.1c0 40.4-32.8 73.1-73.1 73.1H219.4c-40.4 0-73.1-32.7-73.1-73.1v-73.1c0-40.4-32.7-73.1-73.1-73.1C32.7 658.3 0 691 0 731.4v73.1C0 925.8 98.2 1024 219.4 1024h585.2c121.2 0 219.4-98.2 219.4-219.4v-73.1c0-40.5-32.8-73.2-73.1-73.2z" fill="#bfcbd9" p-id="18980"></path><path d="M870 622.3L577.4 37.2c-24.9-49.6-106-49.6-130.9 0L154 622.3c-18.1 36.1-3.4 80.1 32.7 98.1s80 3.4 98.1-32.7L357 543.6c3 0.4 5.7 1.8 8.8 1.8h292.6c3.1 0 5.8-1.4 8.8-1.8l72.1 144.2c12.9 25.6 38.6 40.5 65.5 40.4 11 0 22.1-2.5 32.6-7.7 36-18.1 50.7-62 32.6-98.2zM429.2 399L512 233.4 594.8 399H429.2z" fill="#bfcbd9" p-id="18981"></path></svg>