<?xml version="1.0" standalone="no"?><!DOCTYPE svg PUBLIC "-//W3C//DTD SVG 1.1//EN" "http://www.w3.org/Graphics/SVG/1.1/DTD/svg11.dtd"><svg t="1768373272077" class="icon" viewBox="0 0 1024 1024" version="1.1" xmlns="http://www.w3.org/2000/svg" p-id="18501" xmlns:xlink="http://www.w3.org/1999/xlink" width="200" height="200"><path d="M208.130892 1015.722633H62.429295c-29.519283 0-53.553564-24.034281-53.553565-53.553564V61.731204c0-29.519283 24.034281-53.553564 53.553565-53.553565h145.801324c29.519283 0 53.553564 24.034281 53.553565 53.553565v900.437865c-0.099727 29.519283-24.134009 53.553564-53.653292 53.553564zM86.663031 174.821971h97.134398v-88.757304H86.663031v88.757304z m425.536424 845.787301H366.39813c-29.519283 0-53.553564-24.034281-53.553564-53.553565V66.617842c0-29.519283 24.034281-53.553564 53.553564-53.553565h145.801325c29.519283 0 53.553564 24.034281 53.553564 53.553565v900.437865c0 29.519283-24.034281 53.553564-53.553564 53.553565zM390.731593 179.708609h97.134398v-88.757304h-97.134398v88.757304z m427.331516 844.291391c-25.530191 0-48.268017-18.449552-52.755746-44.478379l-151.984418-887.573043c-4.986365-29.120374 14.659914-56.844566 43.680561-61.731204L800.710557 5.584729c14.06155-2.393455 28.222828 0.797818 39.890923 9.075185 11.668095 8.277367 19.446825 20.543825 21.840281 34.605376l151.984417 887.573043c2.393455 14.06155-0.797818 28.222828-9.075185 39.890923-8.277367 11.668095-20.543825 19.446825-34.605376 21.84028l-6.582002-38.395013 6.582002 38.395013-143.607323 24.632646c-2.991819 0.598364-6.083366 0.797818-9.075185 0.797818z m2.692637-168.93806l17.651734 88.15894 95.738215-16.355278-17.651733-88.158941-95.738216 16.355279z" p-id="18502" fill="#bfcbd9"></path></svg>