<?xml version="1.0" standalone="no"?><!DOCTYPE svg PUBLIC "-//W3C//DTD SVG 1.1//EN" "http://www.w3.org/Graphics/SVG/1.1/DTD/svg11.dtd"><svg t="1767098279499" class="icon" viewBox="0 0 1024 1024" version="1.1" xmlns="http://www.w3.org/2000/svg" p-id="7288" xmlns:xlink="http://www.w3.org/1999/xlink" width="200" height="200"><path d="M635.74206853 896.62820014c-27.03653621 0-80.3414985-4.1048086-136.77527627-8.45860703-40.59591111-3.12881548-82.56713863-6.36568315-118.25959455-8.36229964l-1.70651986-0.27717734c-37.12062395-10.17569721-37.12062395-40.78030452-37.12062395-57.21833061V473.46295283c0-35.2708175 10.15925448-56.04619928 35.05706208-71.72668559 58.60656631-36.90217061 155.32854137-118.07520115 144.67248173-247.10243097-1.66541305-20.10945147 3.23804215-37.0219676 14.17245361-48.89831225 10.49985376-11.40772702 26.09930093-17.69354552 43.90794553-17.69354552 28.70899613 0 63.09425548 17.8380066 70.28090036 50.89375426 0.71173505 3.26153176 1.59024631 6.97288947 2.5615415 11.09061735 9.71999885 41.02342194 29.93397907 126.3952195-11.20454194 220.41706437-3.51639398 7.55778065-3.27914895 14.40969863 0.62952144 20.54400918 7.54016344 11.83053992 27.59793778 19.47288315 51.11338208 19.47288315 15.74508273 0 39.22529261-3.37545634 64.08316789-6.94939986 31.22238395-4.48651469 66.6141729-9.5743633 96.93573045-9.57436329 37.70434065 0 61.57800143 8.11213534 72.97046022 24.80502365 22.78021964 33.38577663 5.97810466 81.01212674-11.8082248 131.42551857-8.32001835 23.59061105-16.93013334 47.97986868-21.31211929 70.89985146-2.67194266 13.96457061-5.16888774 30.50125305-7.80559597 48.01392861-11.03306782 73.13136402-24.75334653 164.16415656-68.72001606 192.86610581-53.10882408 34.68122839-124.38920717 34.68122839-181.6721342 34.68122838z m-367.45025147-1.53856917h-77.6120063c-25.21021935 0-45.71899412-20.50290237-45.71899413-45.70607484V450.51360803c0-25.21021935 20.50877476-45.71899412 45.71899413-45.71899413h77.6120063c25.21021935 0 45.71899412 20.50877476 45.71899412 45.71899413v398.8640757c0 25.20904487-20.51464717 45.71194724-45.71899412 45.71194724z" fill="#1296db" p-id="7289"></path></svg>