<?xml version="1.0" standalone="no"?><!DOCTYPE svg PUBLIC "-//W3C//DTD SVG 1.1//EN" "http://www.w3.org/Graphics/SVG/1.1/DTD/svg11.dtd"><svg t="1766659245871" class="icon" viewBox="0 0 1024 1024" version="1.1" xmlns="http://www.w3.org/2000/svg" p-id="9512" xmlns:xlink="http://www.w3.org/1999/xlink" width="200" height="200"><path d="M219.428571 768q0-14.857143-10.857142-25.714286t-25.714286-10.857143-25.714286 10.857143-10.857143 25.714286 10.857143 25.714286 25.714286 10.857143 25.714286-10.857143 10.857142-25.714286z m658.285715-329.142857q0-29.142857-22.285715-51.142857t-50.857142-22H603.428571q0-33.142857 27.428572-91.142857t27.428571-91.714286q0-56-18.285714-82.857143t-73.142857-26.857143q-14.857143 14.857143-21.714286 48.571429t-17.428571 71.714285T493.714286 256q-12.571429 13.142857-44 52-2.285714 2.857143-13.142857 17.142857t-18 23.428572-19.714286 24.285714-22.857143 25.142857-22 20.285714-22.857143 15.428572-20.285714 5.142857h-18.285714v365.714286h18.285714q7.428571 0 18 1.714285t18.857143 3.714286 21.714285 6.285714 20 6.571429 20.285715 7.142857 16.571428 6q120.571429 41.714286 195.428572 41.714286h69.142857q109.714286 0 109.714286-95.428572 0-14.857143-2.857143-32 17.142857-9.142857 27.142857-30t10-42-10.285714-39.428571q30.285714-28.571429 30.285714-68 0-14.285714-5.714286-31.714286t-14.285714-27.142857q18.285714-0.571429 30.571428-26.857143t12.285715-46.285714z m73.142857-0.571429q0 50.857143-28 93.142857 5.142857 18.857143 5.142857 39.428572 0 44-21.714286 82.285714 1.714286 12 1.714286 24.571429 0 57.714286-34.285714 101.714285 0.571429 79.428571-48.571429 125.428572t-129.714286 46H621.714286q-54.857143 0-108.285715-12.857143T389.714286 900.571429q-66.285714-22.857143-78.857143-22.857143H146.285714q-30.285714 0-51.714285-21.428572T73.142857 804.571429V438.857143q0-30.285714 21.428572-51.714286T146.285714 365.714286h156.571429q20.571429-13.714286 78.285714-88.571429 33.142857-42.857143 61.142857-73.142857 13.714286-14.285714 20.285715-48.857143T480 82.857143t35.428571-61.714286q22.285714-21.142857 51.428572-21.142857 48 0 86.285714 18.571429T711.428571 76.571429t20 106.285714q0 53.142857-27.428571 109.714286h100.571429q59.428571 0 102.857142 43.428571t43.428572 102.285714z" p-id="9513"></path></svg>