<?xml version="1.0" standalone="no"?><!DOCTYPE svg PUBLIC "-//W3C//DTD SVG 1.1//EN" "http://www.w3.org/Graphics/SVG/1.1/DTD/svg11.dtd"><svg t="1772014035999" class="icon" viewBox="0 0 1024 1024" version="1.1" xmlns="http://www.w3.org/2000/svg" p-id="14996" xmlns:xlink="http://www.w3.org/1999/xlink" width="300" height="300"><path d="M984.786824 470.618353c-22.588235 0-41.381647 18.281412-41.381648 41.381647 0 237.989647-193.415529 431.405176-431.405176 431.405176S80.594824 749.989647 80.594824 512 274.010353 80.594824 512 80.594824a431.585882 431.585882 0 0 1 377.675294 221.876705h-66.078118c-22.558118 0-41.351529 18.281412-41.351529 41.381647 0 23.100235 18.251294 41.351529 41.351529 41.35153h186.428236V152.033882c0-22.558118-18.251294-41.351529-41.35153-41.351529s-41.381647 18.251294-41.381647 41.351529v59.632942C832.210824 78.968471 678.008471 0 512 0 229.406118 0 0 229.406118 0 512s229.948235 512 512 512c282.593882 0 512-229.948235 512-512 0-23.100235-17.167059-41.381647-39.213176-41.381647z" fill="#bfcbd9" p-id="14997"></path><path d="M506.307765 263.770353c-22.287059 0-40.839529 18.040471-40.83953 40.839529v284.973177h284.943059c22.287059 0 40.869647-18.070588 40.869647-40.869647 0-22.829176-18.070588-40.869647-40.869647-40.869647h-203.233882v-205.342118c-0.542118-21.775059-18.070588-38.731294-40.869647-38.731294z" fill="#bfcbd9" p-id="14998"></path></svg>